<svg width="175" height="41" viewBox="0 0 175 41" fill="none" xmlns="http://www.w3.org/2000/svg">
<path d="M76.3308 35.166H71.3844V10.2362H89.231V14.3516H76.3308V20.9995H86.3028V25.0358H76.3308V35.166ZM92.5668 10.2362H97.3153V35.166H92.5668V10.2362ZM105.455 26.4604C105.455 29.7448 106.959 32.0399 109.848 32.0399C112.776 32.0399 114.28 29.7448 114.28 26.4604C114.28 23.1364 112.776 20.8412 109.848 20.8412C106.959 20.8412 105.455 23.1364 105.455 26.4604ZM119.068 26.4604C119.068 31.8816 115.269 35.6409 109.848 35.6409C104.466 35.6409 100.667 31.8816 100.667 26.4604C100.667 21.0391 104.466 17.2403 109.848 17.2403C115.269 17.2403 119.068 21.0391 119.068 26.4604ZM126.332 26.4604C126.332 29.7448 127.836 32.0399 130.725 32.0399C133.653 32.0399 135.156 29.7448 135.156 26.4604C135.156 23.1364 133.653 20.8412 130.725 20.8412C127.836 20.8412 126.332 23.1364 126.332 26.4604ZM139.945 26.4604C139.945 31.8816 136.146 35.6409 130.725 35.6409C125.343 35.6409 121.544 31.8816 121.544 26.4604C121.544 21.0391 125.343 17.2403 130.725 17.2403C136.146 17.2403 139.945 21.0391 139.945 26.4604ZM155.403 17.9525L155.047 22.3845C154.137 21.8701 153.345 21.6327 152.198 21.6327C149.744 21.6327 148.082 23.3738 148.082 26.5395V35.166H143.334V17.7151H148.082V21.0391C148.715 19.0605 150.536 17.2403 152.95 17.2403C154.018 17.2403 154.889 17.5173 155.403 17.9525ZM156.684 29.3886L160.8 29.2303C161.077 31.3276 162.659 32.396 165.073 32.396C166.814 32.396 168.239 31.8025 168.239 30.5362C168.239 29.3491 167.448 28.8346 165.706 28.5576L162.936 28.0828C159.217 27.4892 157.159 26.1042 157.159 22.8594C157.159 19.5354 159.969 17.2403 164.401 17.2403C169.228 17.2403 172.117 19.4167 172.433 23.2947L168.516 23.4529C168.199 21.4744 166.854 20.4851 164.361 20.4851C162.659 20.4851 161.551 21.237 161.551 22.4241C161.551 23.3738 162.185 23.9278 163.451 24.1257L166.775 24.6796C170.455 25.2732 172.631 26.8165 172.631 30.1009C172.631 33.6623 169.545 35.6409 165.034 35.6409C160.483 35.6409 157.001 33.6623 156.684 29.3886Z" fill="white"/>
<g clip-path="url(#clip0_2074_427)">
<path d="M50.7054 20.2822L40.5639 25.3526L20.2822 15.2117L40.5639 5.07031V15.2117L50.7054 20.2822Z" fill="white"/>
<path d="M40.564 35.4936L30.4231 40.564L0 25.3528L20.2823 15.2119V25.3528L40.564 35.4936Z" fill="white"/>
<path d="M40.5645 5.07042L50.7059 0L60.8467 5.07042L50.7059 10.1408L40.5645 5.07042Z" fill="white"/>
</g>
<defs>
<clipPath id="clip0_2074_427">
<rect width="60.8463" height="40.564" fill="white"/>
</clipPath>
</defs>
</svg>
