<svg width="360" height="304" viewBox="0 0 360 304" fill="none" xmlns="http://www.w3.org/2000/svg">
<mask id="path-1-inside-1_2392_5099" fill="white">
<path d="M92.7651 156.795C76.7266 166.055 76.7266 181.068 92.7651 190.328L106.331 198.16C113.039 202.033 116.184 209.086 109.476 212.959L103.708 216.29C97.0347 220.142 97.0347 226.389 103.708 230.241L136 248.885C141.782 252.224 151.157 252.224 156.94 248.885C162.722 245.547 172.098 245.547 177.88 248.885L199.447 261.337C208.85 266.766 224.097 266.765 233.5 261.336L241.453 256.744C256.155 248.256 253.494 230.392 268.196 221.903L270.423 220.617C277.718 216.406 277.718 209.578 270.424 205.366C267.696 203.791 267.696 201.238 270.424 199.663L275.546 196.705C283.761 191.962 283.761 184.272 275.546 179.529L268.598 175.518C260.383 170.775 247.063 170.775 238.848 175.517L226.591 182.594C218.376 187.337 218.376 195.027 226.591 199.77L233.539 203.782C233.66 203.852 233.663 203.965 233.542 204.035L229.213 206.534C226.737 207.964 222.722 207.964 220.245 206.534L214.239 203.066C206.572 198.64 194.142 198.64 186.475 203.066C185.346 203.718 183.479 203.808 182.35 203.156L176.183 199.595C172.246 197.323 172.246 193.638 176.183 191.365L177.979 190.328C194.017 181.068 194.017 166.055 177.979 156.795L164.413 148.962C148.374 139.702 122.37 139.702 106.331 148.962L92.7651 156.795Z"/>
</mask>
<path d="M92.7651 156.795L92.1802 156.457L92.1802 156.457L92.7651 156.795ZM92.7651 190.328L92.1802 190.666L92.1802 190.666L92.7651 190.328ZM106.331 198.16L105.747 198.498L105.747 198.498L106.331 198.16ZM241.453 256.744L242.038 257.082L242.038 257.082L241.453 256.744ZM270.424 205.366L271.009 205.028L271.009 205.028L270.424 205.366ZM275.546 196.705L276.131 197.043L276.131 197.043L275.546 196.705ZM238.848 175.517L238.263 175.18L238.263 175.18L238.848 175.517ZM226.591 199.77L226.006 200.108L226.006 200.108L226.591 199.77ZM186.475 203.066L185.89 202.729L185.89 202.728L186.475 203.066ZM177.979 190.328L178.564 190.666L178.564 190.666L177.979 190.328ZM177.979 156.795L178.564 156.457L178.564 156.457L177.979 156.795ZM164.413 148.962L164.998 148.624L164.998 148.624L164.413 148.962ZM106.331 148.962L105.747 148.624L105.747 148.624L106.331 148.962ZM92.7651 156.795L93.3501 157.132C77.6346 166.206 77.6346 180.917 93.3501 189.99L92.7651 190.328L92.1802 190.666C75.8186 181.219 75.8186 165.904 92.1802 156.457L92.7651 156.795ZM92.7651 190.328L93.3501 189.99L106.916 197.823L106.331 198.16L105.747 198.498L92.1802 190.666L92.7651 190.328ZM109.476 212.959L110.061 213.297L104.293 216.627L103.708 216.29L103.123 215.952L108.891 212.621L109.476 212.959ZM103.708 230.241L104.293 229.904L136.585 248.547L136 248.885L135.415 249.223L103.123 230.579L103.708 230.241ZM177.88 248.885L178.465 248.547L200.032 260.999L199.447 261.337L198.862 261.674L177.295 249.223L177.88 248.885ZM199.447 261.337L200.032 260.999C209.112 266.242 223.835 266.241 232.915 260.999L233.5 261.336L234.085 261.674C224.359 267.29 208.589 267.29 198.862 261.674L199.447 261.337ZM233.5 261.336L232.915 260.999L240.868 256.407L241.453 256.744L242.038 257.082L234.085 261.674L233.5 261.336ZM268.196 221.903L267.611 221.566L269.838 220.28L270.423 220.617L271.008 220.955L268.781 222.241L268.196 221.903ZM270.423 220.617L269.838 220.28C276.81 216.255 276.81 209.729 269.839 205.704L270.424 205.366L271.009 205.028C278.626 209.426 278.626 216.557 271.008 220.955L270.423 220.617ZM270.424 199.663L269.839 199.325L274.961 196.368L275.546 196.705L276.131 197.043L271.009 200.001L270.424 199.663ZM275.546 196.705L274.961 196.368C282.853 191.811 282.853 184.423 274.961 179.867L275.546 179.529L276.13 179.191C284.669 184.121 284.669 192.113 276.131 197.043L275.546 196.705ZM275.546 179.529L274.961 179.867L268.013 175.856L268.598 175.518L269.183 175.18L276.13 179.191L275.546 179.529ZM268.598 175.518L268.013 175.856C260.121 171.299 247.325 171.299 239.433 175.855L238.848 175.517L238.263 175.18C246.801 170.25 260.645 170.251 269.183 175.18L268.598 175.518ZM238.848 175.517L239.433 175.855L227.176 182.931L226.591 182.594L226.006 182.256L238.263 175.18L238.848 175.517ZM226.591 182.594L227.176 182.931C219.284 187.488 219.284 194.876 227.176 199.432L226.591 199.77L226.006 200.108C217.468 195.178 217.468 187.185 226.006 182.256L226.591 182.594ZM226.591 199.77L227.176 199.432L234.124 203.444L233.539 203.782L232.954 204.119L226.006 200.108L226.591 199.77ZM233.542 204.035L234.127 204.373L229.798 206.872L229.213 206.534L228.628 206.196L232.957 203.697L233.542 204.035ZM220.245 206.534L219.66 206.872L213.654 203.404L214.239 203.066L214.824 202.728L220.83 206.196L220.245 206.534ZM214.239 203.066L213.654 203.404C206.31 199.164 194.404 199.164 187.06 203.404L186.475 203.066L185.89 202.728C193.88 198.116 206.834 198.116 214.824 202.728L214.239 203.066ZM182.35 203.156L181.765 203.494L175.598 199.933L176.183 199.595L176.768 199.258L182.935 202.818L182.35 203.156ZM176.183 191.365L175.598 191.027L177.394 189.99L177.979 190.328L178.564 190.666L176.768 191.703L176.183 191.365ZM177.979 190.328L177.394 189.99C193.109 180.917 193.109 166.206 177.394 157.132L177.979 156.795L178.564 156.457C194.925 165.904 194.925 181.219 178.564 190.666L177.979 190.328ZM177.979 156.795L177.394 157.132L163.828 149.3L164.413 148.962L164.998 148.624L178.564 156.457L177.979 156.795ZM164.413 148.962L163.828 149.3C148.112 140.227 122.632 140.227 106.916 149.3L106.331 148.962L105.747 148.624C122.108 139.178 148.636 139.178 164.998 148.624L164.413 148.962ZM106.331 148.962L106.916 149.3L93.3501 157.132L92.7651 156.795L92.1802 156.457L105.747 148.624L106.331 148.962ZM229.213 206.534L229.798 206.872C226.998 208.488 222.46 208.488 219.66 206.872L220.245 206.534L220.83 206.196C222.984 207.44 226.475 207.44 228.628 206.196L229.213 206.534ZM270.424 205.366L269.839 205.704C266.788 203.942 266.788 201.087 269.839 199.325L270.424 199.663L271.009 200.001C268.604 201.389 268.604 203.64 271.009 205.028L270.424 205.366ZM156.94 248.885L156.355 248.547C162.46 245.022 172.359 245.022 178.465 248.547L177.88 248.885L177.295 249.223C171.836 246.071 162.984 246.071 157.525 249.223L156.94 248.885ZM233.539 203.782L234.124 203.444C234.56 203.695 234.58 204.111 234.127 204.373L233.542 204.035L232.957 203.697C232.746 203.819 232.761 204.008 232.954 204.119L233.539 203.782ZM241.453 256.744L240.868 256.407C248.03 252.272 250.998 245.827 254.025 239.202C257.018 232.65 260.071 225.919 267.611 221.566L268.196 221.903L268.781 222.241C261.619 226.376 258.651 232.821 255.625 239.446C252.631 245.997 249.579 252.729 242.038 257.082L241.453 256.744ZM136 248.885L136.585 248.547C142.044 251.699 150.895 251.699 156.355 248.547L156.94 248.885L157.525 249.223C151.419 252.748 141.52 252.748 135.415 249.223L136 248.885ZM176.183 199.595L175.598 199.933C171.338 197.474 171.338 193.487 175.598 191.027L176.183 191.365L176.768 191.703C173.154 193.789 173.154 197.172 176.768 199.258L176.183 199.595ZM103.708 216.29L104.293 216.627C97.9427 220.293 97.9427 226.237 104.293 229.904L103.708 230.241L103.123 230.579C96.1267 226.54 96.1267 219.991 103.123 215.952L103.708 216.29ZM186.475 203.066L187.06 203.404C185.666 204.209 183.273 204.365 181.765 203.494L182.35 203.156L182.935 202.818C183.685 203.252 185.025 203.228 185.89 202.729L186.475 203.066ZM106.331 198.16L106.916 197.823C110.391 199.829 112.936 202.65 113.751 205.481C114.566 208.314 113.659 211.22 110.061 213.297L109.476 212.959L108.891 212.621C112.001 210.826 112.875 208.268 112.118 205.638C111.361 203.006 108.98 200.365 105.747 198.498L106.331 198.16Z" fill="#BEFFB0" mask="url(#path-1-inside-1_2392_5099)"/>
<rect width="32.4296" height="32.4296" transform="matrix(0.866025 -0.5 0.866025 0.5 109.562 243.771)" fill="#BEFFB0"/>
<rect width="32.4296" height="32.4296" transform="matrix(0.866025 -0.5 0.866025 0.5 81.4777 259.986)" fill="#BEFFB0"/>
<rect width="32.4296" height="17.058" transform="matrix(0.866025 -0.5 0 1 250.047 178.07)" fill="#0A0A0A" stroke="#262626" stroke-width="0.535227"/>
<rect width="32.4296" height="17.058" transform="matrix(0.866025 -0.5 0 1 250.047 161.013)" fill="#0A0A0A" stroke="#262626" stroke-width="0.535227"/>
<rect width="32.4296" height="17.058" transform="matrix(0.866025 -0.5 0 1 250.047 143.952)" fill="#0A0A0A" stroke="#262626" stroke-width="0.535227"/>
<rect width="32.4296" height="17.058" transform="matrix(0.866025 -0.5 0 1 221.962 194.33)" fill="#0A0A0A" stroke="#262626" stroke-width="0.535227"/>
<rect width="32.4296" height="17.058" transform="matrix(0.866025 -0.5 0 1 221.962 177.274)" fill="#0A0A0A" stroke="#262626" stroke-width="0.535227"/>
<rect width="32.4296" height="17.058" transform="matrix(0.866025 -0.5 0 1 193.877 210.546)" fill="#0A0A0A" stroke="#262626" stroke-width="0.535227"/>
<path d="M250.047 36.9578C250.047 28.0027 256.334 24.3729 264.089 28.8504V28.8504C271.844 33.328 278.131 44.2174 278.131 53.1726V110.68L250.047 94.4655V36.9578Z" fill="url(#paint0_radial_2392_5099)"/>
<g filter="url(#filter0_f_2392_5099)">
<path d="M250.047 36.9578C250.047 28.0027 256.334 24.3729 264.09 28.8504V28.8504C271.845 33.328 278.132 44.2174 278.132 53.1726V110.68L250.047 94.4655V36.9578Z" fill="url(#paint1_radial_2392_5099)"/>
</g>
<rect y="0.0593184" width="15.395" height="15.395" transform="matrix(0.866025 0.5 -0.866025 0.5 289.418 177.725)" fill="#0A0A0A" stroke="#262626" stroke-width="0.118637"/>
<rect x="0.0966177" y="0.0557823" width="15.2906" height="15.2906" transform="matrix(0.866025 -0.5 0 1 289.38 193.257)" fill="#0A0A0A" stroke="#262626" stroke-width="0.223129"/>
<rect x="0.0513713" y="0.0889777" width="15.395" height="15.395" transform="matrix(0.866025 0.5 0 1 275.938 185.427)" fill="#0A0A0A" stroke="#262626" stroke-width="0.118637"/>
<rect y="0.0593184" width="15.395" height="15.395" transform="matrix(0.866025 0.5 -0.866025 0.5 249.491 230.371)" fill="#0A0A0A" stroke="#262626" stroke-width="0.118637"/>
<rect x="0.0966177" y="0.0557823" width="15.2906" height="15.2906" transform="matrix(0.866025 -0.5 0 1 249.453 245.904)" fill="#0A0A0A" stroke="#262626" stroke-width="0.223129"/>
<rect x="0.0513713" y="0.0889777" width="15.395" height="15.395" transform="matrix(0.866025 0.5 0 1 236.012 238.073)" fill="#0A0A0A" stroke="#262626" stroke-width="0.118637"/>
<rect x="0.193235" width="32.2065" height="32.2065" transform="matrix(0.866025 -0.5 0.866025 0.5 221.988 110.777)" fill="#F9F9F9" stroke="#262626" stroke-width="0.223129"/>
<rect x="0.0966177" y="0.167347" width="32.2065" height="16.8108" transform="matrix(0.866025 0.5 0 1 221.975 110.632)" fill="#0A0A0A" stroke="#262626" stroke-width="0.223129"/>
<rect width="32.4296" height="17.058" transform="matrix(0.866025 -0.5 0 1 250.047 126.895)" fill="#0A0A0A" stroke="#262626" stroke-width="0.535227"/>
<rect x="0.193235" width="32.2065" height="32.2065" transform="matrix(0.866025 -0.5 0.866025 0.5 137.734 210.667)" fill="#F9F9F9" stroke="#262626" stroke-width="0.223129"/>
<rect x="0.0966177" y="0.167347" width="32.2065" height="16.8108" transform="matrix(0.866025 0.5 0 1 137.721 210.522)" fill="#0A0A0A" stroke="#262626" stroke-width="0.223129"/>
<rect width="32.4296" height="17.058" transform="matrix(0.866025 -0.5 0 1 165.794 226.785)" fill="#0A0A0A" stroke="#262626" stroke-width="0.535227"/>
<rect y="0.0593184" width="15.395" height="15.395" transform="matrix(0.866025 0.5 -0.866025 0.5 143.843 162.211)" fill="#0A0A0A" stroke="#262626" stroke-width="0.118637"/>
<rect x="0.0513713" y="0.0296592" width="15.395" height="15.395" transform="matrix(0.866025 -0.5 0 1 143.798 177.721)" fill="#0A0A0A" stroke="#262626" stroke-width="0.118637"/>
<rect x="0.0513713" y="0.0889777" width="15.395" height="15.395" transform="matrix(0.866025 0.5 0 1 130.363 169.913)" fill="#0A0A0A" stroke="#262626" stroke-width="0.118637"/>
<rect y="0.0593184" width="15.395" height="15.395" transform="matrix(0.866025 0.5 -0.866025 0.5 72.713 198.206)" fill="#0A0A0A" stroke="#262626" stroke-width="0.118637"/>
<rect x="0.0513713" y="0.0296592" width="15.395" height="15.395" transform="matrix(0.866025 -0.5 0 1 72.6685 213.715)" fill="#0A0A0A" stroke="#262626" stroke-width="0.118637"/>
<rect x="0.0513713" y="0.0889777" width="15.395" height="15.395" transform="matrix(0.866025 0.5 0 1 59.2333 205.907)" fill="#0A0A0A" stroke="#262626" stroke-width="0.118637"/>
<rect y="0.0593184" width="15.395" height="15.395" transform="matrix(0.866025 0.5 -0.866025 0.5 99.5836 138.941)" fill="#0A0A0A" stroke="#262626" stroke-width="0.118637"/>
<rect x="0.0513713" y="0.0296592" width="15.395" height="15.395" transform="matrix(0.866025 -0.5 0 1 99.5391 154.451)" fill="#0A0A0A" stroke="#262626" stroke-width="0.118637"/>
<rect x="0.0513713" y="0.0889777" width="15.395" height="15.395" transform="matrix(0.866025 0.5 0 1 86.1039 146.642)" fill="#0A0A0A" stroke="#262626" stroke-width="0.118637"/>
<rect x="0.193235" width="32.2065" height="32.2065" transform="matrix(0.866025 -0.5 0.866025 0.5 165.819 177.37)" fill="#F9F9F9" stroke="#262626" stroke-width="0.223129"/>
<rect x="0.0966177" y="0.167347" width="32.2065" height="16.8108" transform="matrix(0.866025 0.5 0 1 165.806 177.225)" fill="#0A0A0A" stroke="#262626" stroke-width="0.223129"/>
<rect width="32.4296" height="17.058" transform="matrix(0.866025 -0.5 0 1 193.878 193.488)" fill="#0A0A0A" stroke="#262626" stroke-width="0.535227"/>
<rect x="0.193235" width="32.2065" height="32.2065" transform="matrix(0.866025 -0.5 0.866025 0.5 193.904 144.098)" fill="#F9F9F9" stroke="#262626" stroke-width="0.223129"/>
<rect x="0.0966177" y="0.167347" width="32.2065" height="16.8108" transform="matrix(0.866025 0.5 0 1 193.891 143.953)" fill="#0A0A0A" stroke="#262626" stroke-width="0.223129"/>
<rect width="32.4296" height="17.058" transform="matrix(0.866025 -0.5 0 1 221.963 160.217)" fill="#0A0A0A" stroke="#262626" stroke-width="0.535227"/>
<defs>
<filter id="filter0_f_2392_5099" x="223.195" y="0.0806446" width="81.7887" height="137.452" filterUnits="userSpaceOnUse" color-interpolation-filters="sRGB">
<feFlood flood-opacity="0" result="BackgroundImageFix"/>
<feBlend mode="normal" in="SourceGraphic" in2="BackgroundImageFix" result="shape"/>
<feGaussianBlur stdDeviation="13.426" result="effect1_foregroundBlur_2392_5099"/>
</filter>
<radialGradient id="paint0_radial_2392_5099" cx="0" cy="0" r="1" gradientTransform="matrix(0 36.8612 -14.0424 -8.10738 264.089 65.7117)" gradientUnits="userSpaceOnUse">
<stop stop-color="#D6FFCD"/>
<stop offset="1" stop-color="white"/>
</radialGradient>
<radialGradient id="paint1_radial_2392_5099" cx="0" cy="0" r="1" gradientTransform="matrix(0 36.8612 -14.0424 -8.10738 264.09 65.7117)" gradientUnits="userSpaceOnUse">
<stop stop-color="#BEFFB0"/>
<stop offset="1" stop-color="#BEFFB0"/>
</radialGradient>
</defs>
</svg>
